# xmcd CD database file
#
# Track frame offsets:
#	150
#	20980
#	43617
#	66320
#	87400
#	106347
#	130010
#	151775
#	172627
#	193985
#	216650
#	242570
#	262595
#	286875
#	310142
#
# Disc length: 4410 seconds
#
# Revision: 0
# Processed by: cddbd v1.5.1PL0 Copyright (c) Steve Scherf et al.
# Submitted via: CDex 1.51
#
DISCID=ce11380f
DTITLE=沢田知可子 - SUPER BEST Disc 2
DYEAR=1995
DGENRE=New Age
TTITLE0=幸せになろう
TTITLE1=Silent Rain
TTITLE2=微笑って
TTITLE3=COME INTO MY LIFE
TTITLE4=Return to Forever
TTITLE5=Boy
TTITLE6=Travail
TTITLE7=Feel
TTITLE8=気が済むまで〜Good bye dear〜
TTITLE9=LOVE LETTER
TTITLE10=忘れないでいて
TTITLE11=Smile on heart
TTITLE12=運命を選ぶ瞬間
TTITLE13=ふたり
TTITLE14=忘れられない
EXTD=YEAR: 1995
EXTT0=
EXTT1=
EXTT2=
EXTT3=
EXTT4=
EXTT5=
EXTT6=
EXTT7=
EXTT8=
EXTT9=
EXTT10=
EXTT11=
EXTT12=
EXTT13=
EXTT14=
PLAYORDER=
